<svg xmlns="http://www.w3.org/2000/svg" viewBox="0 0 600 200" font-family="Source Sans Pro, -apple-system, sans-serif">
  <rect width="600" height="200" rx="8" fill="#F7F6F5"/>
  <text x="300" y="22" text-anchor="middle" font-size="13" font-weight="700" fill="#312D2A">Duality View Catalog — Metadata Views</text>
  <!-- View 1: user_json_duality_view_tabs -->
  <rect x="20" y="40" width="175" height="100" rx="6" fill="#fff" stroke="#E5E2DF" stroke-width="1.5"/>
  <rect x="20" y="40" width="175" height="24" rx="6 6 0 0" fill="#312D2A"/>
  <text x="107" y="56" text-anchor="middle" font-size="9" font-weight="600" fill="#fff">user_json_duality_view_tabs</text>
  <text x="32" y="78" font-size="9" fill="#312D2A" font-family="Source Code Pro, monospace">VIEW_NAME</text>
  <text x="32" y="92" font-size="9" fill="#9B9590" font-family="Source Code Pro, monospace">TABLE_NAME</text>
  <text x="32" y="106" font-size="9" fill="#9B9590" font-family="Source Code Pro, monospace">TABLE_ALIAS</text>
  <text x="32" y="120" font-size="9" fill="#9B9590" font-family="Source Code Pro, monospace">ROOT_TABLE</text>
  <text x="32" y="134" font-size="9" fill="#9B9590" font-family="Source Code Pro, monospace">KEY_COLUMN</text>
  <!-- View 2: _tab_cols -->
  <rect x="212" y="40" width="175" height="100" rx="6" fill="#fff" stroke="#E5E2DF" stroke-width="1.5"/>
  <rect x="212" y="40" width="175" height="24" rx="6 6 0 0" fill="#312D2A"/>
  <text x="299" y="56" text-anchor="middle" font-size="9" font-weight="600" fill="#fff">..._view_tab_cols</text>
  <text x="224" y="78" font-size="9" fill="#312D2A" font-family="Source Code Pro, monospace">VIEW_NAME</text>
  <text x="224" y="92" font-size="9" fill="#9B9590" font-family="Source Code Pro, monospace">TABLE_NAME</text>
  <text x="224" y="106" font-size="9" fill="#9B9590" font-family="Source Code Pro, monospace">COLUMN_NAME</text>
  <text x="224" y="120" font-size="9" fill="#9B9590" font-family="Source Code Pro, monospace">JSON_KEY_NAME</text>
  <text x="224" y="134" font-size="9" fill="#9B9590" font-family="Source Code Pro, monospace">JSON_KEY_PATH</text>
  <!-- View 3: _links -->
  <rect x="404" y="40" width="175" height="100" rx="6" fill="#fff" stroke="#E5E2DF" stroke-width="1.5"/>
  <rect x="404" y="40" width="175" height="24" rx="6 6 0 0" fill="#312D2A"/>
  <text x="491" y="56" text-anchor="middle" font-size="9" font-weight="600" fill="#fff">..._view_links</text>
  <text x="416" y="78" font-size="9" fill="#312D2A" font-family="Source Code Pro, monospace">VIEW_NAME</text>
  <text x="416" y="92" font-size="9" fill="#9B9590" font-family="Source Code Pro, monospace">PARENT_TABLE</text>
  <text x="416" y="106" font-size="9" fill="#9B9590" font-family="Source Code Pro, monospace">CHILD_TABLE</text>
  <text x="416" y="120" font-size="9" fill="#9B9590" font-family="Source Code Pro, monospace">FK_COLUMN</text>
  <text x="416" y="134" font-size="9" fill="#9B9590" font-family="Source Code Pro, monospace">RELATIONSHIP</text>
  <!-- Bottom labels -->
  <rect x="30" y="155" width="155" height="18" rx="3" fill="#1B7D3A" fill-opacity="0.1"/>
  <text x="107" y="168" text-anchor="middle" font-size="9" font-weight="600" fill="#1B7D3A">Which tables?</text>
  <rect x="222" y="155" width="155" height="18" rx="3" fill="#1B7D3A" fill-opacity="0.1"/>
  <text x="299" y="168" text-anchor="middle" font-size="9" font-weight="600" fill="#1B7D3A">Which columns?</text>
  <rect x="414" y="155" width="155" height="18" rx="3" fill="#1B7D3A" fill-opacity="0.1"/>
  <text x="491" y="168" text-anchor="middle" font-size="9" font-weight="600" fill="#1B7D3A">How linked?</text>
  <!-- Summary -->
  <text x="300" y="192" text-anchor="middle" font-size="10" font-weight="600" fill="#312D2A">SELECT * FROM user_json_duality_view_tabs — introspect any duality view</text>
</svg>