<svg xmlns="http://www.w3.org/2000/svg" viewBox="0 0 600 200" font-family="Source Sans Pro, -apple-system, sans-serif">
  <defs>
    <marker id="ai1" viewBox="0 0 10 10" refX="10" refY="5" markerWidth="7" markerHeight="7" orient="auto"><path d="M0,0 L10,5 L0,10" fill="#C74634"/></marker>
  </defs>
  <rect width="600" height="200" rx="8" fill="#F7F6F5"/>
  <text x="300" y="24" text-anchor="middle" font-size="13" font-weight="700" fill="#312D2A">Compound Indexes on One Collection</text>
  <!-- Collection in center -->
  <rect x="220" y="55" width="160" height="100" rx="8" fill="#312D2A"/>
  <text x="300" y="78" text-anchor="middle" font-size="11" font-weight="700" fill="#fff">advisory_entities</text>
  <line x1="235" y1="86" x2="365" y2="86" stroke="rgba(255,255,255,0.15)" stroke-width="1"/>
  <text x="300" y="104" text-anchor="middle" font-size="9" fill="rgba(255,255,255,0.6)">advisorId, accountId,</text>
  <text x="300" y="118" text-anchor="middle" font-size="9" fill="rgba(255,255,255,0.6)">symbol, tags[],</text>
  <text x="300" y="132" text-anchor="middle" font-size="9" fill="rgba(255,255,255,0.6)">entityType, data...</text>
  <!-- Index 1: idx_advisor -->
  <rect x="20" y="55" width="140" height="36" rx="6" fill="#C74634" fill-opacity="0.08" stroke="#C74634" stroke-width="1.5"/>
  <text x="90" y="72" text-anchor="middle" font-size="10" font-weight="600" fill="#C74634">idx_advisor</text>
  <text x="90" y="84" text-anchor="middle" font-size="8" fill="#9B9590" font-family="Source Code Pro, monospace">$.pk, $.sk</text>
  <line x1="162" y1="73" x2="218" y2="90" stroke="#C74634" stroke-width="2" marker-end="url(#ai1)"/>
  <!-- Index 2: idx_account -->
  <rect x="20" y="105" width="140" height="36" rx="6" fill="#1B7D3A" fill-opacity="0.08" stroke="#1B7D3A" stroke-width="1.5"/>
  <text x="90" y="122" text-anchor="middle" font-size="10" font-weight="600" fill="#1B7D3A">idx_account</text>
  <text x="90" y="134" text-anchor="middle" font-size="8" fill="#9B9590" font-family="Source Code Pro, monospace">$.gsi1pk, $.gsi1sk</text>
  <line x1="162" y1="123" x2="218" y2="115" stroke="#C74634" stroke-width="2" marker-end="url(#ai1)"/>
  <!-- Index 3: idx_symbol -->
  <rect x="440" y="75" width="140" height="36" rx="6" fill="#996B00" fill-opacity="0.08" stroke="#996B00" stroke-width="1.5"/>
  <text x="510" y="92" text-anchor="middle" font-size="10" font-weight="600" fill="#996B00">idx_symbol</text>
  <text x="510" y="104" text-anchor="middle" font-size="8" fill="#9B9590" font-family="Source Code Pro, monospace">$.data.symbol</text>
  <line x1="438" y1="93" x2="382" y2="105" stroke="#C74634" stroke-width="2" marker-end="url(#ai1)"/>
  <!-- Bottom note -->
  <rect x="120" y="168" width="360" height="24" rx="5" fill="#312D2A"/>
  <text x="300" y="184" text-anchor="middle" font-size="10" font-weight="600" fill="#fff">3 access patterns, 1 collection, full SQL optimizer</text>
</svg>