<svg xmlns="http://www.w3.org/2000/svg" viewBox="0 0 600 200" font-family="Source Sans Pro, -apple-system, sans-serif">
  <defs>
    <marker id="mi1" viewBox="0 0 10 10" refX="10" refY="5" markerWidth="7" markerHeight="7" orient="auto"><path d="M0,0 L10,5 L0,10" fill="#C74634"/></marker>
  </defs>
  <rect width="600" height="200" rx="8" fill="#F7F6F5"/>
  <text x="300" y="24" text-anchor="middle" font-size="13" font-weight="700" fill="#312D2A">Multi-Value Index on JSON Array</text>
  <!-- Document on left -->
  <rect x="20" y="42" width="190" height="110" rx="8" fill="#fff" stroke="#E5E2DF" stroke-width="1.5"/>
  <text x="115" y="62" text-anchor="middle" font-size="10" font-weight="600" fill="#312D2A">Document</text>
  <text x="36" y="80" font-size="9" fill="#312D2A" font-family="Source Code Pro, monospace">{</text>
  <text x="46" y="94" font-size="9" fill="#312D2A" font-family="Source Code Pro, monospace">"symbol": "AAPL",</text>
  <text x="46" y="108" font-size="9" fill="#C74634" font-weight="600" font-family="Source Code Pro, monospace">"tags": [</text>
  <text x="56" y="122" font-size="9" fill="#C74634" font-family="Source Code Pro, monospace">"dividend","sp500","growth"</text>
  <text x="46" y="136" font-size="9" fill="#C74634" font-weight="600" font-family="Source Code Pro, monospace">]</text>
  <text x="36" y="148" font-size="9" fill="#312D2A" font-family="Source Code Pro, monospace">}</text>
  <!-- Arrows fanning out -->
  <line x1="212" y1="85" x2="340" y2="66" stroke="#C74634" stroke-width="2" marker-end="url(#mi1)"/>
  <line x1="212" y1="105" x2="340" y2="105" stroke="#C74634" stroke-width="2" marker-end="url(#mi1)"/>
  <line x1="212" y1="125" x2="340" y2="144" stroke="#C74634" stroke-width="2" marker-end="url(#mi1)"/>
  <text x="278" y="55" text-anchor="middle" font-size="8" fill="#C74634" font-weight="600">MULTIVALUE</text>
  <!-- Index entries on right -->
  <rect x="345" y="42" width="235" height="110" rx="8" fill="#312D2A"/>
  <text x="462" y="62" text-anchor="middle" font-size="10" font-weight="700" fill="#fff">B-Tree Index Entries</text>
  <line x1="360" y1="70" x2="565" y2="70" stroke="rgba(255,255,255,0.15)" stroke-width="1"/>
  <rect x="360" y="78" width="205" height="20" rx="3" fill="#C74634" fill-opacity="0.2"/>
  <text x="462" y="92" text-anchor="middle" font-size="9" fill="#fff" font-family="Source Code Pro, monospace">"dividend"  → rowid</text>
  <rect x="360" y="102" width="205" height="20" rx="3" fill="#C74634" fill-opacity="0.2"/>
  <text x="462" y="116" text-anchor="middle" font-size="9" fill="#fff" font-family="Source Code Pro, monospace">"sp500"     → rowid</text>
  <rect x="360" y="126" width="205" height="20" rx="3" fill="#C74634" fill-opacity="0.2"/>
  <text x="462" y="140" text-anchor="middle" font-size="9" fill="#fff" font-family="Source Code Pro, monospace">"growth"    → rowid</text>
  <!-- Bottom label -->
  <rect x="140" y="166" width="320" height="26" rx="5" fill="#C74634" fill-opacity="0.08" stroke="#C74634" stroke-width="1"/>
  <text x="300" y="183" text-anchor="middle" font-size="10" font-weight="600" fill="#C74634">One entry per array element — indexed array search</text>
</svg>
