<svg xmlns="http://www.w3.org/2000/svg" viewBox="0 0 580 280" font-family="Source Sans Pro, -apple-system, sans-serif">
  <rect width="580" height="280" rx="8" fill="#F7F6F5"/>
  <text x="290" y="24" text-anchor="middle" font-size="13" font-weight="700" fill="#312D2A">Single-Table Design Pattern</text>
  <text x="290" y="42" text-anchor="middle" font-size="10" fill="#9B9590">One collection. Multiple entity types. Partition key co-location.</text>
  <!-- Table header -->
  <rect x="30" y="60" width="520" height="28" rx="6 6 0 0" fill="#312D2A"/>
  <text x="120" y="78" text-anchor="middle" font-size="10" font-weight="600" fill="#fff">pk</text>
  <text x="270" y="78" text-anchor="middle" font-size="10" font-weight="600" fill="#fff">sk</text>
  <text x="430" y="78" text-anchor="middle" font-size="10" font-weight="600" fill="#fff">entityType</text>
  <!-- Advisor row -->
  <rect x="30" y="88" width="520" height="28" fill="#C74634" fill-opacity="0.08"/>
  <text x="120" y="106" text-anchor="middle" font-size="10" font-family="Source Code Pro, monospace" fill="#312D2A">ADVISOR#5</text>
  <text x="270" y="106" text-anchor="middle" font-size="10" font-family="Source Code Pro, monospace" fill="#312D2A">ADVISOR#5</text>
  <rect x="395" y="93" width="70" height="18" rx="3" fill="#C74634" fill-opacity="0.15"/>
  <text x="430" y="106" text-anchor="middle" font-size="10" font-weight="600" fill="#C74634">advisor</text>
  <!-- Client rows -->
  <rect x="30" y="116" width="520" height="28" fill="#fff"/>
  <text x="120" y="134" text-anchor="middle" font-size="10" font-family="Source Code Pro, monospace" fill="#312D2A">ADVISOR#5</text>
  <text x="270" y="134" text-anchor="middle" font-size="10" font-family="Source Code Pro, monospace" fill="#312D2A">CLIENT#101</text>
  <rect x="400" y="121" width="60" height="18" rx="3" fill="#1B7D3A" fill-opacity="0.15"/>
  <text x="430" y="134" text-anchor="middle" font-size="10" font-weight="600" fill="#1B7D3A">client</text>
  <rect x="30" y="144" width="520" height="28" fill="#F7F6F5"/>
  <text x="120" y="162" text-anchor="middle" font-size="10" font-family="Source Code Pro, monospace" fill="#312D2A">ADVISOR#5</text>
  <text x="270" y="162" text-anchor="middle" font-size="10" font-family="Source Code Pro, monospace" fill="#312D2A">CLIENT#102</text>
  <rect x="400" y="149" width="60" height="18" rx="3" fill="#1B7D3A" fill-opacity="0.15"/>
  <text x="430" y="162" text-anchor="middle" font-size="10" font-weight="600" fill="#1B7D3A">client</text>
  <!-- Holding rows -->
  <rect x="30" y="172" width="520" height="28" fill="#fff"/>
  <text x="120" y="190" text-anchor="middle" font-size="10" font-family="Source Code Pro, monospace" fill="#312D2A">ACCOUNT#1</text>
  <text x="270" y="190" text-anchor="middle" font-size="10" font-family="Source Code Pro, monospace" fill="#312D2A">HOLD#1001</text>
  <rect x="395" y="177" width="70" height="18" rx="3" fill="#996B00" fill-opacity="0.15"/>
  <text x="430" y="190" text-anchor="middle" font-size="10" font-weight="600" fill="#996B00">holding</text>
  <rect x="30" y="200" width="520" height="28" rx="0 0 6 6" fill="#F7F6F5"/>
  <text x="120" y="218" text-anchor="middle" font-size="10" font-family="Source Code Pro, monospace" fill="#312D2A">ACCOUNT#1</text>
  <text x="270" y="218" text-anchor="middle" font-size="10" font-family="Source Code Pro, monospace" fill="#312D2A">HOLD#1002</text>
  <rect x="395" y="205" width="70" height="18" rx="3" fill="#996B00" fill-opacity="0.15"/>
  <text x="430" y="218" text-anchor="middle" font-size="10" font-weight="600" fill="#996B00">holding</text>
  <!-- Vertical line showing partition -->
  <line x1="28" y1="88" x2="28" y2="170" stroke="#C74634" stroke-width="3" stroke-linecap="round"/>
  <text x="16" y="133" text-anchor="middle" font-size="8" fill="#C74634" transform="rotate(-90,16,133)">partition</text>
  <!-- Bottom note -->
  <text x="290" y="255" text-anchor="middle" font-size="11" font-weight="600" fill="#312D2A">WHERE pk = 'ADVISOR#5' → 1 advisor + all clients in one query</text>
  <text x="290" y="272" text-anchor="middle" font-size="10" fill="#9B9590">+ SQL JOINs, aggregation, multi-value indexes (unlike DynamoDB)</text>
</svg>
