<svg xmlns="http://www.w3.org/2000/svg" viewBox="0 0 400 62" fill="#C74634">
  <path d="M31 0C13.9 0 0 13.9 0 31s13.9 31 31 31h10.3c17.1 0 31-13.9 31-31S58.4 0 41.3 0H31zm10.3 49.7H31c-10.3 0-18.7-8.4-18.7-18.7S20.7 12.3 31 12.3h10.3C51.6 12.3 60 20.7 60 31s-8.4 18.7-18.7 18.7zM126.4 0h-14.1L82.5 62h13.2l7.4-15.6h30.5L141 62h13.2L126.4 0zm-17.9 35.1L119.3 12l10.8 23.1h-21.6zM193.5 0h-33.4v62h12.3V12.3h21.1c5.4 0 9.8 4.4 9.8 9.8s-4.4 9.8-9.8 9.8h-14.1l25.6 30.1h16.4l-18.8-22.2c9.2-2.7 15.5-11.3 15.5-21.6C218.1 8.1 210 0 193.5 0zM269.9 0h-14.1L226 62h13.2l7.4-15.6h30.5L284.5 62h13.2L269.9 0zm-17.9 35.1L262.8 12l10.8 23.1h-21.6zM337.8 49.7h-21.1c-10.3 0-18.7-8.4-18.7-18.7s8.4-18.7 18.7-18.7h27.8V0h-27.8c-17.1 0-31 13.9-31 31s13.9 31 31 31h27.8V49.7h-6.7zM382.6 0h-12.3v62h29.7V49.7h-17.4V0z"/>
</svg>
